<?xml version="1.0" standalone="no"?>
<!DOCTYPE svg PUBLIC "-//W3C//DTD SVG 20010904//EN"
 "http://www.w3.org/TR/2001/REC-SVG-20010904/DTD/svg10.dtd">
<svg version="1.0" xmlns="http://www.w3.org/2000/svg"
 width="700.000000pt" height="700.000000pt" viewBox="0 0 700.000000 700.000000"
 preserveAspectRatio="xMidYMid meet">
<metadata>
Created by potrace 1.14, written by Peter Selinger 2001-2017
</metadata>
<g transform="translate(0.000000,700.000000) scale(0.100000,-0.100000)"
fill="#000000" stroke="none">
<path d="M3261 6580 c-913 -77 -1723 -532 -2266 -1276 -299 -408 -488 -891
-561 -1429 -24 -180 -24 -570 0 -750 98 -724 406 -1344 913 -1836 1013 -982
2550 -1159 3751 -430 786 476 1322 1282 1456 2186 98 664 -25 1358 -344 1935
-484 877 -1339 1457 -2335 1585 -146 19 -472 27 -614 15z m379 -1939 c97 -29
238 -97 320 -155 l65 -46 3 90 3 90 189 0 190 0 0 -939 c0 -978 0 -973 43
-1035 24 -34 105 -73 170 -82 38 -5 48 -10 44 -23 -2 -9 -21 -81 -42 -160
l-39 -143 -70 7 c-228 21 -361 109 -432 283 -12 29 -25 52 -30 50 -5 -1 -31
-29 -59 -62 -228 -274 -623 -376 -987 -255 -166 54 -293 135 -413 260 -158
166 -266 387 -311 639 -24 130 -23 400 0 529 93 513 420 870 882 966 107 22
377 14 474 -14z"/>
<path d="M3265 4306 c-294 -68 -491 -291 -567 -641 -19 -89 -17 -362 4 -455
38 -173 105 -305 210 -415 123 -130 252 -195 427 -217 206 -25 409 48 582 211
l79 73 0 633 0 634 -30 21 c-54 39 -236 120 -316 141 -102 27 -303 35 -389 15z"/>
</g>
</svg>
