<svg xmlns="http://www.w3.org/2000/svg" width="34" height="34" viewBox="0 0 34 34">
    <g fill="none" fill-rule="evenodd">
        <g transform="translate(2 1)">
            <circle cx="15" cy="16" r="15" fill="#191919"/>
            <path fill="#FFF" fill-rule="nonzero"
                  d="M17.96875,22 C17.8828121,21.8359367 17.8144534,21.6308606 17.7636719,21.3847656 C17.7128904,21.1386706 17.6757814,20.8828138 17.6523438,20.6171875 C17.4335927,20.8359386 17.1894545,21.0429678 16.9199219,21.2382812 C16.6503893,21.4335947 16.3535172,21.605468 16.0292969,21.7539062 C15.7050765,21.9023445 15.3593768,22.0195308 14.9921875,22.1054688 C14.6249982,22.1914067 14.2343771,22.234375 13.8203125,22.234375 C13.1484341,22.234375 12.5410183,22.1367197 11.9980469,21.9414062 C11.4550754,21.7460928 10.9941425,21.4824235 10.6152344,21.1503906 C10.2363262,20.8183577 9.94336041,20.4238304 9.73632812,19.9667969 C9.52929584,19.5097633 9.42578125,19.0156277 9.42578125,18.484375 C9.42578125,17.789059 9.56445174,17.1796901 9.84179688,16.65625 C10.119142,16.1328099 10.5117162,15.6972674 11.0195312,15.3496094 C11.5273463,15.0019514 12.1386683,14.7421884 12.8535156,14.5703125 C13.5683629,14.3984366 14.3671831,14.3125 15.25,14.3125 L17.6171875,14.3125 L17.6171875,13.3164062 C17.6171875,12.9335918 17.5468757,12.5898453 17.40625,12.2851562 C17.2656243,11.9804672 17.0664075,11.7207042 16.8085938,11.5058594 C16.55078,11.2910146 16.23633,11.1250006 15.8652344,11.0078125 C15.4941388,10.8906244 15.0781273,10.8320312 14.6171875,10.8320312 C14.1874979,10.8320312 13.8027361,10.8867182 13.4628906,10.9960938 C13.1230452,11.1054693 12.8359387,11.2499991 12.6015625,11.4296875 C12.3671863,11.6093759 12.1855475,11.8222644 12.0566406,12.0683594 C11.9277337,12.3144544 11.8632812,12.5703112 11.8632812,12.8359375 L9.68359375,12.8359375 C9.69140629,12.3749977 9.81054572,11.9218772 10.0410156,11.4765625 C10.2714855,11.0312478 10.6035135,10.6308612 11.0371094,10.2753906 C11.4707053,9.9199201 11.9980438,9.63281359 12.6191406,9.4140625 C13.2402375,9.19531141 13.9453086,9.0859375 14.734375,9.0859375 C15.4531286,9.0859375 16.1210907,9.17382725 16.7382812,9.34960938 C17.3554718,9.5253915 17.8886696,9.79101385 18.3378906,10.1464844 C18.7871116,10.5019549 19.1406237,10.9453098 19.3984375,11.4765625 C19.6562513,12.0078152 19.7851562,12.6289027 19.7851562,13.3398438 L19.7851562,19.234375 C19.7851562,19.6562521 19.8242184,20.1035133 19.9023438,20.5761719 C19.9804691,21.0488305 20.089843,21.4609357 20.2304688,21.8125 L20.2304688,22 L17.96875,22 Z M14.1367188,20.3476562 C14.5585959,20.3476562 14.9531232,20.2929693 15.3203125,20.1835938 C15.6875018,20.0742182 16.0214829,19.9296884 16.3222656,19.75 C16.6230484,19.5703116 16.8828114,19.3652355 17.1015625,19.1347656 C17.3203136,18.9042957 17.4921869,18.6640638 17.6171875,18.4140625 L17.6171875,15.8476562 L15.6015625,15.8476562 C14.3359312,15.8476562 13.351566,16.0351544 12.6484375,16.4101562 C11.945309,16.7851581 11.59375,17.374996 11.59375,18.1796875 C11.59375,18.4921891 11.6464838,18.7812487 11.7519531,19.046875 C11.8574224,19.3125013 12.0156239,19.5410147 12.2265625,19.7324219 C12.4375011,19.9238291 12.7031234,20.0742182 13.0234375,20.1835938 C13.3437516,20.2929693 13.7148416,20.3476562 14.1367188,20.3476562 Z"/>
        </g>
    </g>
</svg>
