<svg xmlns="http://www.w3.org/2000/svg" width="34" height="34" viewBox="0 0 34 34">
    <g fill="none" fill-rule="evenodd">
        <circle cx="15" cy="15" r="15" fill="#191919" transform="translate(2 2)"/>
        <path fill="#FFF" fill-rule="nonzero"
              d="M10.99,17.346 C10.99,16.4953291 11.1219987,15.6996704 11.386,14.959 C11.6500013,14.2183296 12.0203309,13.5766694 12.497,13.034 C12.973669,12.4913306 13.5456633,12.0660015 14.213,11.758 C14.8803367,11.4499985 15.609996,11.296 16.402,11.296 C17.0620033,11.296 17.659664,11.4096655 18.195,11.637 C18.730336,11.8643345 19.195998,12.146665 19.592,12.484 L19.592,11.56 L21.396,11.56 L21.396,20.228 C21.396,20.7853361 21.5316653,21.1483325 21.803,21.317 C22.0743347,21.4856675 22.3713317,21.57 22.694,21.57 L22.276,23.11 C20.867993,23.11 20.0173348,22.5380057 19.724,21.394 C19.5479991,21.6286678 19.3463345,21.8596655 19.119,22.087 C18.8916655,22.3143345 18.6313348,22.5159991 18.338,22.692 C18.0446652,22.8680009 17.7146685,23.0073328 17.348,23.11 C16.9813315,23.2126672 16.5780022,23.264 16.138,23.264 C15.4193297,23.264 14.7483365,23.1246681 14.125,22.846 C13.5016635,22.5673319 12.9590023,22.1713359 12.497,21.658 C12.0349977,21.1446641 11.6683347,20.5250036 11.397,19.799 C11.1256653,19.0729964 10.99,18.2553379 10.99,17.346 Z M16.578,21.504 C17.1353361,21.504 17.6633308,21.3720013 18.162,21.108 C18.6606692,20.8439987 19.078665,20.4993355 19.416,20.074 L19.416,13.936 C19.019998,13.6573319 18.583669,13.4336675 18.107,13.265 C17.630331,13.0963325 17.1280026,13.012 16.6,13.012 C16.0719974,13.012 15.5880022,13.1146656 15.148,13.32 C14.7079978,13.5253344 14.3303349,13.8149981 14.015,14.189 C13.6996651,14.5630019 13.4540009,15.0139974 13.278,15.542 C13.1019991,16.0700026 13.014,16.6493302 13.014,17.28 C13.014,17.8960031 13.1019991,18.4643307 13.278,18.985 C13.4540009,19.5056693 13.7033317,19.9529981 14.026,20.327 C14.3486683,20.7010019 14.7263312,20.9906656 15.159,21.196 C15.5916688,21.4013344 16.0646641,21.504 16.578,21.504 Z"/>
    </g>
</svg>
